<svg xmlns="http://www.w3.org/2000/svg" width="77" height="83" viewBox="0 0 77 83">
  <metadata><?xpacket begin="﻿" id="W5M0MpCehiHzreSzNTczkc9d"?>
<x:xmpmeta xmlns:x="adobe:ns:meta/" x:xmptk="Adobe XMP Core 5.6-c138 79.159824, 2016/09/14-01:09:01        ">
   <rdf:RDF xmlns:rdf="http://www.w3.org/1999/02/22-rdf-syntax-ns#">
      <rdf:Description rdf:about=""/>
   </rdf:RDF>
</x:xmpmeta>
                                                                                                    
                                                                                                    
                                                                                                    
                                                                                                    
                                                                                                    
                                                                                                    
                                                                                                    
                                                                                                    
                                                                                                    
                                                                                                    
                                                                                                    
                                                                                                    
                                                                                                    
                                                                                                    
                                                                                                    
                                                                                                    
                                                                                                    
                                                                                                    
                                                                                                    
                                                                                                    
                           
<?xpacket end="w"?></metadata>
<defs>
    <style>
      .cls-1 {
        fill: #e65a5a;
        fill-rule: evenodd;
      }
    </style>
  </defs>
  <path id="Ghost" class="cls-1" d="M1128.52,1590a38.593,38.593,0,0,0-15.98,3.46l-0.1.04a40.994,40.994,0,0,0-11.2,7.03c-7.31,6.45-11.02,14.44-11.02,23.73l-0.01.2c-0.14,1.42-.21,2.69-0.21,3.87v34.57a3.779,3.779,0,0,0,3.78,3.76c3.11,0,4.44.97,6.45,2.45,2.5,1.82,5.33,3.89,10.89,3.89a16.849,16.849,0,0,0,10.91-3.89c2.01-1.48,3.34-2.45,6.46-2.45,3.1,0,4.43.97,6.44,2.44,2.51,1.83,5.35,3.9,10.92,3.9a16.8,16.8,0,0,0,10.92-3.9c2.01-1.47,3.34-2.44,6.45-2.44a3.779,3.779,0,0,0,3.78-3.76v-34.57A38.451,38.451,0,0,0,1128.52,1590Zm30.92,69.45-1.38.43a18.9,18.9,0,0,0-5.74,3.15c-2.02,1.47-3.36,2.45-6.47,2.45s-4.43-.97-6.44-2.44c-2.51-1.83-5.35-3.9-10.92-3.9a16.912,16.912,0,0,0-10.93,3.89c-2.01,1.48-3.34,2.45-6.44,2.45s-4.41-.97-6.42-2.44a19.219,19.219,0,0,0-5.75-3.16l-1.39-.44v-31.11a31.174,31.174,0,0,1,1.89-10.68,30.809,30.809,0,0,1,5.89-9.71,2.134,2.134,0,0,1,.21-0.26,12.706,12.706,0,0,1,.91-0.9c0.13-.12.26-0.24,0.39-0.37s0.25-.25.37-0.38c0.38-.37.76-0.76,1.21-1.14a30.968,30.968,0,0,1,51.01,23.45v31.11Zm-43.67-37.83a6.715,6.715,0,1,0,6.75,6.71A6.73,6.73,0,0,0,1115.77,1621.62Zm25.45,0a6.715,6.715,0,1,0,6.74,6.71A6.739,6.739,0,0,0,1141.22,1621.62Z" transform="translate(-1090 -1590)"/>
</svg>
