<svg xmlns="http://www.w3.org/2000/svg" viewBox="0 0 182.88 172.52"><title>Heart</title><g id="Calque_2" data-name="Calque 2"><g id="Capa_1" data-name="Capa 1"><path d="M47,36.87a29.79,29.79,0,0,0-12.2,23.8,27.37,27.37,0,0,0,.4,5,8.67,8.67,0,0,0,8.4,7.1,7.57,7.57,0,0,0,1.5-.1,8.54,8.54,0,0,0,6.9-9.9,14.92,14.92,0,0,1-.2-2.1,12.1,12.1,0,0,1,5.2-10,8.52,8.52,0,1,0-10-13.8Z"/><path d="M173.42,28.07a59,59,0,0,0-8-10.6A55.24,55.24,0,0,0,95,9a7.34,7.34,0,0,1-8.06,0,55.24,55.24,0,0,0-70.47,8.51,61.15,61.15,0,0,0,0,83.4l38,39.8L85,170a8.69,8.69,0,0,0,12.3,0l30.3-29.2,38-39.8C199.2,64.15,173.42,28.07,173.42,28.07Zm-144.5,1.3a38.14,38.14,0,0,1,28-12.2,37.4,37.4,0,0,1,28,12.2,8.69,8.69,0,0,0,12.3,0,38.23,38.23,0,0,1,56,0A43.29,43.29,0,0,1,165,59.67a42.1,42.1,0,0,1-11.8,29.5L96.45,148.71a7.27,7.27,0,0,1-1.4,1.14l0,0a7.23,7.23,0,0,1-7.72,0l-.2-.13a7.31,7.31,0,0,1-1.38-1.12L28.92,89.17A43.85,43.85,0,0,1,28.92,29.37Z"/></g></g></svg>