<svg xmlns="http://www.w3.org/2000/svg" width="72" height="129" viewBox="0 0 72 129">
  <metadata><?xpacket begin="﻿" id="W5M0MpCehiHzreSzNTczkc9d"?>
<x:xmpmeta xmlns:x="adobe:ns:meta/" x:xmptk="Adobe XMP Core 5.6-c138 79.159824, 2016/09/14-01:09:01        ">
   <rdf:RDF xmlns:rdf="http://www.w3.org/1999/02/22-rdf-syntax-ns#">
      <rdf:Description rdf:about=""/>
   </rdf:RDF>
</x:xmpmeta>
                                                                                                    
                                                                                                    
                                                                                                    
                                                                                                    
                                                                                                    
                                                                                                    
                                                                                                    
                                                                                                    
                                                                                                    
                                                                                                    
                                                                                                    
                                                                                                    
                                                                                                    
                                                                                                    
                                                                                                    
                                                                                                    
                                                                                                    
                                                                                                    
                                                                                                    
                                                                                                    
                           
<?xpacket end="w"?></metadata>
<defs>
    <style>
      .cls-1 {
        fill: #fff;
        fill-rule: evenodd;
      }
    </style>
  </defs>
  <path id="Picto_FR" data-name="Picto FR" class="cls-1" d="M402.7,6775.8l-10.883-20.31a2.531,2.531,0,0,0,1.813-2.23v-9.47a2.121,2.121,0,0,0-2.232-2.22h-4.744l-1.953-6.12a2.6,2.6,0,0,0,1.255-2.09v-9.05a2.116,2.116,0,0,0-2.232-2.22h-4.047l-5.581-28.67a2.169,2.169,0,0,0,2.093-2.23v-9.04a2.124,2.124,0,0,0-2.232-2.23h-4.326v-6.4h0.977a29.093,29.093,0,0,0,8.651-1.67c2.511-.7,4.883-1.53,7.255-1.53a8.969,8.969,0,0,1,2.791.42,2.3,2.3,0,0,0,1.953-.42,2.074,2.074,0,0,0,.838-1.81v-15.73a2.38,2.38,0,0,0-1.675-2.22,13.751,13.751,0,0,0-4.186-.56,29.093,29.093,0,0,0-8.651,1.67,34.688,34.688,0,0,1-3.767.97,16.037,16.037,0,0,1-3.628.42,8.967,8.967,0,0,1-2.79-.42,2.338,2.338,0,0,0-1.954.42,2.076,2.076,0,0,0-.837,1.81v24.91h-4.325a2.124,2.124,0,0,0-2.233,2.23v9.04a2.119,2.119,0,0,0,2.233,2.23l-5.861,28.81h-4.046a2.117,2.117,0,0,0-2.233,2.22v9.05a2.307,2.307,0,0,0,1.256,2.09l-1.953,6.12h-4.6a2.116,2.116,0,0,0-2.232,2.22v9.47a2.392,2.392,0,0,0,1.674,2.23l-11.023,20.31a2.5,2.5,0,0,0,0,2.23,2.252,2.252,0,0,0,1.953.97h17.3a2.117,2.117,0,0,0,2.233-2.22c0-8.35,5.86-13.92,13.953-13.92,8.372,0,13.953,5.85,13.953,13.92a2.116,2.116,0,0,0,2.233,2.22h17.72a2.649,2.649,0,0,0,1.953-.97A1.877,1.877,0,0,0,402.7,6775.8Zm-28.6-118.15a30.894,30.894,0,0,0,4.884-1.39c1.395-.41,2.511-0.69,3.767-0.97v11.13a27.1,27.1,0,0,0-5.023,1.39,34.854,34.854,0,0,1-3.628.98v-11.14Zm-10.046,78.07h6l1.814,5.85h-9.628Zm-4.884,10.44h29.72v4.73H345.215v-4.87h13.953v0.14Zm17.581-4.59-1.814-5.85h5.023l1.814,5.85h-5.023Zm-14.093-56.78h8.651v4.45h-8.651v-4.45Zm2.233,8.91h4.186l5.581,28.67h-5.441v-11.28a2.116,2.116,0,0,0-2.233-2.22h0a2.116,2.116,0,0,0-2.232,2.22v11.28h-5.442Zm-12,32.98h28.325v4.45H353.029v-4.45h-0.14Zm1.4,9.04h5.023l-1.814,5.85h-5.023Zm31.255,38.97c-0.977-9.46-8.512-16.28-18.418-16.28s-17.581,6.68-18.419,16.28H337.4l10.047-19.07h39.068l10.326,19.07h-11.3Z" transform="translate(-331 -6650)"/>
</svg>
