<svg xmlns="http://www.w3.org/2000/svg" xmlns:xlink="http://www.w3.org/1999/xlink" width="257" height="190" viewBox="0 0 257 190">
  <metadata><?xpacket begin="﻿" id="W5M0MpCehiHzreSzNTczkc9d"?>
<x:xmpmeta xmlns:x="adobe:ns:meta/" x:xmptk="Adobe XMP Core 5.6-c138 79.159824, 2016/09/14-01:09:01        ">
   <rdf:RDF xmlns:rdf="http://www.w3.org/1999/02/22-rdf-syntax-ns#">
      <rdf:Description rdf:about=""/>
   </rdf:RDF>
</x:xmpmeta>
                                                                                                    
                                                                                                    
                                                                                                    
                                                                                                    
                                                                                                    
                                                                                                    
                                                                                                    
                                                                                                    
                                                                                                    
                                                                                                    
                                                                                                    
                                                                                                    
                                                                                                    
                                                                                                    
                                                                                                    
                                                                                                    
                                                                                                    
                                                                                                    
                                                                                                    
                                                                                                    
                           
<?xpacket end="w"?></metadata>
<defs>
    <style>
      .cls-1 {
        fill: #51f2b0;
        fill-rule: evenodd;
        filter: url(#filter);
      }
    </style>
    <filter id="filter" x="466" y="7832" width="257" height="190" filterUnits="userSpaceOnUse">
      <feGaussianBlur result="blur" stdDeviation="9.667" in="SourceAlpha"/>
      <feComposite result="composite"/>
      <feComposite result="composite-2"/>
      <feComposite result="composite-3"/>
      <feFlood result="flood" flood-color="#51f2b0" flood-opacity="0.19"/>
      <feComposite result="composite-4" operator="in" in2="composite-3"/>
      <feBlend result="blend" mode="screen" in2="SourceGraphic"/>
      <feBlend result="blend-2" in="SourceGraphic"/>
    </filter>
  </defs>
  <path id="USA" class="cls-1" d="M572.313,7984.23a3.154,3.154,0,0,0-1.482-1.74c-1.381-.72-2.233-1.16-2.78-1.43a3.07,3.07,0,0,0-1.677-2.62L564,7977.22a3.019,3.019,0,0,0-1.751-.32l-1.745-.62a3.065,3.065,0,0,0-1.374-.14l-0.549-.73a3.126,3.126,0,0,0-2.464-1.22h-0.924a3.089,3.089,0,0,0-3.089,3.09v0.83a3.1,3.1,0,0,0,2.458,3.02l0.389,0.09a16.179,16.179,0,0,0,1.892.35,3.124,3.124,0,0,0,1.594,1.31,3.178,3.178,0,0,0,1.547,1.62,3.039,3.039,0,0,0,2.119.17,2.069,2.069,0,0,0,.329.15,3.083,3.083,0,0,0,.4,2.74l-0.191,1.23a3.086,3.086,0,0,0,1.648,3.23l1.255,0.64a3.045,3.045,0,0,0,1.408.34,2.971,2.971,0,0,0,.973-0.16,3.034,3.034,0,0,0,1.8-1.57l0.1-.2,0.605-.16a5.565,5.565,0,0,0,2.026-1.28l0.341-.29a2.973,2.973,0,0,0,1.151-2.47A3.529,3.529,0,0,0,572.313,7984.23Zm-6.04,1.74,1.093-.67-0.19-.53c0.481,0.25,1.043.54,1.595,0.83v0.73l1.028,0.68-0.432.35-2.123.55-0.574,1.17-0.3-.16,0.368-2.35Zm127.37-107.11-5.9-11.27a3.088,3.088,0,0,0-2.737-1.66c-0.046,0-.133,0-4.96.57a3.085,3.085,0,0,0-2.691,2.59l-1.615,10.42-1.185,1.47-4.593,1.23-6.93,1.01a3.1,3.1,0,0,0-2.068,1.26l-3.553,4.98a3.084,3.084,0,0,0-.507,2.45l0.191,0.88-0.517.44c-0.236-.1-0.473-0.2-0.681-0.29a3.117,3.117,0,0,0-3.038.32l-2.781,2a3.018,3.018,0,0,0-1.1,3.51l-8,5.96,0.4-9.4a3.068,3.068,0,0,0-2.148-3.08c-0.109-.33-0.285-0.85-0.459-1.37-0.273-.81-0.545-1.62-0.565-1.69a3.1,3.1,0,0,0-1.354-1.67l-8.418-5.01a3,3,0,0,0-.9-0.36l-2.784-.64a3.214,3.214,0,0,0-1.276-2.85,3.958,3.958,0,0,0-4.313-.64l-0.995.59a3.1,3.1,0,0,0-3.056-2.64h-5.942l-7.019-2.51-1.115-2.03a3.017,3.017,0,0,0-2.766-1.61,3.276,3.276,0,0,0-2.712,1.77l-81.511-11.56a3.057,3.057,0,0,0-2.613.86,3.088,3.088,0,0,0-.819,1.42l-1.648-1.1a3.091,3.091,0,0,0-4.8,2.45l-0.385,10.14-6.408,13.97a3.1,3.1,0,0,0-.277,1.14l-0.352,7.36-2.14,2.86a3.122,3.122,0,0,0-.611,1.97l0.319,7.65a3.119,3.119,0,0,0,.118.73c1.792,6.22,4.961,17.27,5.637,19.74-0.086.66-.252,1.87-0.4,2.92a3.085,3.085,0,0,0,1.845,3.27l3.69,1.58,5.134,5.51,0.366,3.36a3.07,3.07,0,0,0,2.741,2.73l8.336,0.9L534,7958.71a3.089,3.089,0,0,0,1.453.6l10.956,1.46a3.053,3.053,0,0,0,3.041-1.43h2.9c2.627,2.84,4.331,4.65,5.318,5.64-0.025.52-.083,1.18-0.147,1.7a3.077,3.077,0,0,0,1.012,2.68l4.788,4.26a3.045,3.045,0,0,0,2.511.76,3.093,3.093,0,0,0,2.167-1.43l1.208-1.95,2.152,0.17,7.9,14.21a3.087,3.087,0,0,0,1.458,1.33c7.987,3.5,8.087,3.5,8.872,3.5a3.105,3.105,0,0,0,2.287-1.01,3.069,3.069,0,0,0,.79-2.35l-0.556-6.08c6.935-5.17,10.536-7.86,12.332-9.28,1.1,0.16,3.715.58,6.391,1,6.638,1.04,7.562,1.18,7.709,1.18a3.293,3.293,0,0,0,1.239-.23,2.97,2.97,0,0,0,2.312.61l1.113-.16a3.086,3.086,0,0,0,1.993-4.98c-0.393-.49-0.726-0.91-1.016-1.26,1.5-.22,4.06-0.61,8.455-1.27l2.446,2.5a3.073,3.073,0,0,0,3.876.44c1.069-.69,2.208-1.41,3.1-1.98,0.7,0.51,1.561,1.15,2.491,1.83l1.2,0.88a12.022,12.022,0,0,0-.046,3.21c0.3,1.47,9.809,14.54,9.882,14.61a3.247,3.247,0,0,0,2.2.88,9.591,9.591,0,0,0,3.531-1.24l0.531-.27c2.221-.65,2.236-2.38,2.267-6.56,0.014-1.89,0-3.89,0-4.36,0-1.01,0-1.02-8.863-17.6l7.33-13.89,1.169-.28a3.1,3.1,0,0,0,2.31-2.37l0.284-1.32,5.66-6.94a3.067,3.067,0,0,0,.442-3.17l-2.23-5.19a3.1,3.1,0,0,0,.283-0.76c1.267-5.5,1.653-7.24,1.773-7.8a3.162,3.162,0,0,0,.923-1.69l0.234-1.25a3.044,3.044,0,0,0,1.283-.21,3.11,3.11,0,0,0,1.953-2.61l0.116-1.4,4.851-5a3.112,3.112,0,0,0,.792-2.84l2.59-1.63a3.079,3.079,0,0,0,1.388-3.13l-1.212-7.11,7.866-7.63A3.1,3.1,0,0,0,693.643,7878.86Zm-82.819,1.81-5.487,6.39,5.313-1.66,0.357,1.72,9-5.29-3.44,3.09,4.157-.53,5.913,1.34,3.015,1.8-0.551.44c-0.547.15-3.427,0.75-5.993,1.26l-0.3.06-4.349,9.18,4.564-4.93c-1.885,9.47-1.875,9.49-1.733,9.72,0.111,0.22,1.769,4.04,2.858,6.55l0.543,1.25,0.582-1.24c3.058-6.46,3.058-6.5,3.058-6.68,0-.1,0-0.1-0.558-2.68-0.34-1.58-.859-3.96-0.89-4.06,0.089-.49,1.663-4.3,3.1-7.64l0.357-.83,4.446,2.65,0.961,2.87c-2,4.22-1.844,4.45-1.653,4.76l0.205,0.3,0.61-.01,0.119-.11c0.473-.28,1.6-1.12,2.611-1.9l-0.48,11.21,3.864,1.62,12.6-9.38-0.946-1.98,2.078-1.49a10.238,10.238,0,0,0,2.467.81l0.256-.01,0.154-.1c0.251-.16,2.38-1.99,3.285-2.77l0.278-.24-0.6-2.77,3.244-4.54,6.876-1.01,5.969-1.6,2.573-3.18,1.7-10.94,3.708-.44,5.488,10.49-8.933,8.67,1.473,8.63-5.931,3.75-0.132.11c-2.221,2.52-2.2,2.56-2.013,2.98l0.171,0.36,0.594-.01,0.145-.08c0.388-.23,1.969-1.12,2.635-1.47l-4.95,5.11-0.125,1.47-2.825-2.58-2.44-6.98-2.964.33,1.12,6.42,4.275,4.11-0.541,2.88-3.913-1.73,2.8,4.56-0.977,4.21-0.229-1.43-5.3-10.16,4.118,16.27,2.7,6.29-5.892,7.23-0.483,1.93-2.428.58-9.034,17.12,0.154,0.29c3.59,6.71,9.013,16.9,9.2,17.31,0.024,4.53-.024,6.81-0.082,7.54-0.133.06-.309,0.15-0.555,0.27-0.468.22-1.342,0.64-1.769,0.82-1.318-1.84-7.939-11.34-8.663-12.51,0-.48.106-2.25,0.217-3.85l0.024-.34-0.272-.2c-6.843-5.06-6.843-5.06-7.123-5.06-0.239,0-.256,0-4.8,2.92l-3.425-3.51-0.311.05c-4.591.7-11.54,1.74-11.827,1.78-0.946,0-1.825,3.75-1.832,3.79a0.688,0.688,0,0,0,.265.73c0.133,0.12.546,0.61,1.038,1.21l-2.853-1.97-0.14.99c-0.043.29-.1,0.63-0.159,0.89-0.671-.1-2-0.31-3.582-0.57-7.132-1.13-10.586-1.68-10.936-1.68H603v0.33c-1.381,1.06-9.2,6.91-14.5,10.86l-0.278.21,0.655,7.15c-1.453-.61-4.418-1.89-6.485-2.8l-8.763-15.78-6.388-.49-2.007,3.24-4-3.56c0.393-3.42-.048-3.68-0.3-3.82-0.424-.33-4.382-4.57-6.777-7.16l-0.184-.2h-6.816l-0.689,1.41-10.363-1.38-12.921-9.74-8.86-.96-0.444-4.08-6.418-6.89-4.066-1.8c0.2-1.43.418-2.98,0.418-3.19,0-.11,0-0.31-5.8-20.4l-0.31-7.43,2.683-3.6,0.4-8.36,6.612-14.43,0.425-9.88,3.908,2.61,0.229,5.16,3.256-4.99-0.823-3.86,83.368,11.83,0.613-1.35,1.2,2.18,8.853,3.16,4.253,0.04Zm-74.61,98.13a3.063,3.063,0,0,0-3.416-.71l-1.092.45-1.082-.72V7961.7a3.092,3.092,0,0,0-2.286-2.98l-13.139-3.53a3.093,3.093,0,0,0-2.054.16l-6.076,2.69a2.994,2.994,0,0,0-1.769,2.12,3.219,3.219,0,0,0,.457,2.33l-0.491.12a3.1,3.1,0,0,0-2.3,2.46,15.494,15.494,0,0,0-.377,2.59,2.635,2.635,0,0,0,1.037,2.33,22.691,22.691,0,0,0-1.886,1.49c-1.913,1.85-1.036,3.26,1.87,7.9,0.641,1.02,1.289,2.04,1.764,2.78l-4.106,1.36a3.09,3.09,0,0,0,1.41,5.99l5.416-.77a3.062,3.062,0,0,0,1.147-.41l6.871-4.11a2.956,2.956,0,0,0,.5-0.37,2.715,2.715,0,0,0,.488.04,16.676,16.676,0,0,0,2.277-.43c0.485-.1.92-0.2,1.1-0.23a3.161,3.161,0,0,0,1.778-.81l0.518,0.43a3.315,3.315,0,0,0,3.075.6l0.091-.02,4.907,2.56,4.468,5.81a3.083,3.083,0,0,0,2.382,1.2h0.065a3.08,3.08,0,0,0,2.375-1.11l2.243-2.69a3.075,3.075,0,0,0-.145-4.11Zm2.97,8.44-1.4,1.68-4.415-5.74-1.363-.77,1.822-.75Zm-26.764-5.98,0.8,0.38-4.209,2.52,4.308-4.41-4.329,1.17c-1.851-2.87-3.8-5.99-4.354-7.04,0.48-.37,1.411-1.07,2.283-1.73l5.353-.88-1.377-.87c-1.87-1.17-3.92-2.51-4.565-2.98,0.046-.3.13-0.8,0.219-1.31l1.718-.43,0.057,1.16,0.5,0.08c0.486,0.07,1.333.2,1.547,0.2,0.462,0,.726-0.22,1.321-2.31l0.147-.52-0.5-.22a10.219,10.219,0,0,1-.943-0.46c-0.062-.3-0.182-0.99-0.278-1.57l-0.031-.18-0.728-.79,5.086-2.26,12.471,3.35v17.6l-0.332-.17-1.643.24-1.856-1.55-3.334-.23,1.285-1.88Zm7.173-1.62c-0.236.05-.582,0.12-1.095,0.23l0.979-1.42,0.041,0.32C519.556,7979.08,519.584,7979.4,519.593,7979.64Zm32.685-4.99a3.089,3.089,0,0,0-3.089-3.09h-1.256a3.089,3.089,0,0,0-3.089,3.09v0.89a3.089,3.089,0,0,0,3.089,3.09h1.256a3.089,3.089,0,0,0,3.089-3.09v-0.89Z" transform="translate(-466 -7832)"/>
</svg>
